<svg width="177" height="186" viewBox="0 0 177 186" fill="none" xmlns="http://www.w3.org/2000/svg">
<path d="M91.75 79.5C86.4167 78.1667 73.85 79.1 66.25 93.5C61.5481 102.409 58.3899 109.608 56.4677 114.553C54.8255 118.778 53.1589 123.014 51 127M91.75 79.5L94.7774 78.9496C96.3955 78.6554 97.9036 77.9281 99.1413 76.8451C100.515 75.6429 102.219 74.8818 104.031 74.6608L114.983 73.3253C119.469 72.7782 124.011 72.9111 128.457 73.7195L132.75 74.5L139.58 76.1072C140.606 76.3484 141.411 77.1421 141.666 78.1639C141.722 78.3871 141.75 78.6163 141.75 78.8464V79.9857C141.75 82.2809 141.095 84.5285 139.863 86.4649L138.491 88.621C138.331 88.8722 138.134 89.0978 137.907 89.2902C135.806 91.068 137.063 94.5 139.815 94.5H140.75M91.75 79.5L89.75 73.5M10.75 98L21.75 108M10.75 98V93.6259C10.75 89.5685 11.4041 85.5376 12.6872 81.6885C13.3943 79.567 14.2886 77.5126 15.3594 75.5495L16.75 73M10.75 98C10.4212 98.3288 10.1734 98.7297 10.0264 99.1708L9.12781 101.867C8.54751 103.607 8.29087 105.44 8.37058 107.273L8.45899 109.307C8.64989 113.698 9.94828 117.969 12.2334 121.723L12.4347 122.053C14.6161 125.637 17.5869 128.676 21.1206 130.937L24.3438 133M16.75 73L13.4865 70.5953C9.40426 67.5874 6.20736 63.5356 4.23158 58.8656C2.59772 55.0037 1.8445 50.8264 2.02665 46.6371L2.04724 46.1634C2.18162 43.0726 2.78795 40.0206 3.84518 37.1132L4.14018 36.302C5.53651 32.4621 7.57724 28.8884 10.1747 25.7343L12.2405 23.2259C12.9126 22.4097 13.6427 21.643 14.4251 20.9318C17.2592 18.3552 20.7167 16.5629 24.4558 15.732L27.75 15M16.75 73C18.4116 71.6708 19.9208 70.1616 21.25 68.5L21.8039 67.8076C24.0885 64.9518 26.7862 62.4526 29.8078 60.3924L30.8014 59.7149C34.4035 57.259 38.4241 55.4823 42.6652 54.4726L43.8316 54.1949C45.7705 53.7332 47.7568 53.5 49.75 53.5M27.75 15C27.75 15 28.9548 14.3608 29.75 14M27.75 15L25.5838 17.3631C23.3818 19.7653 21.6619 22.5683 20.5177 25.6195C19.6768 27.8619 19.1568 30.2119 18.9731 32.5997L18.8753 33.8713C18.7919 34.9554 18.7954 36.0443 18.8857 37.1278C19.1258 40.0096 19.9763 42.8073 21.3807 45.3352L21.75 46L24.25 50.5M29.75 14L30.2263 13.259C32.8497 9.17825 36.6248 5.96749 41.0737 4.03316C44.1582 2.69207 47.4857 2 50.8491 2H53.25L62.5885 3.24513C66.3135 3.7418 69.8756 5.0837 73.0024 7.16824C75.8044 9.03625 78.1939 11.4587 80.0233 14.286L80.4481 14.9425C81.9743 17.3011 83.1423 19.873 83.9141 22.5743L84.75 25.5M29.75 14C31.379 13.2609 33.1487 12.9001 34.9266 12.7026L36.6912 12.5065C39.7041 12.1718 42.7529 12.4008 45.682 13.1819C47.7188 13.725 49.6767 14.5295 51.5069 15.5753L51.8457 15.769C54.4313 17.2465 56.759 19.1352 58.7375 21.3609L59.75 22.5L62.25 25.5M84.75 25.5L91.5874 24.7111C95.6896 24.2377 99.8224 24.0829 103.949 24.2479L105.732 24.3193C108.739 24.4396 111.732 24.7965 114.684 25.3867C118.386 26.1271 122.005 27.2313 125.49 28.6833L126.25 29M84.75 25.5C81.7589 26.1647 78.8493 27.1537 76.0727 28.4494L72.75 30L65.4087 33.953C61.6735 35.9643 58.3754 38.698 55.7062 41.9953L55.1414 42.693C52.5781 45.8594 50.738 49.5478 49.75 53.5M126.25 29L132.427 29.8825C135.293 30.2918 138.08 31.1302 140.696 32.3693C144.358 34.1036 147.613 36.5898 150.249 39.6658L151.487 41.1103C153.981 44.0198 156.018 47.2919 157.527 50.8141L159.75 56M126.25 29L118.75 30C114.466 30.6591 110.37 32.2217 106.736 34.5841L102.25 37.5L101.305 38.2998C97.6435 41.3978 94.6836 45.2395 92.6216 49.5696C91.379 52.1791 90.4763 54.9372 89.9355 57.7764L89.818 58.3929C89.1098 62.1108 88.9513 65.9126 89.3475 69.6766L89.75 73.5M159.75 56L162.122 58.0331C165.185 60.6588 167.783 63.7835 169.804 67.2751C171.427 70.0787 172.662 73.0897 173.475 76.2256L173.88 77.7866C175.113 82.5424 175.333 87.5043 174.525 92.3505L174.219 94.1868C173.908 96.0539 173.348 97.8709 172.555 99.5895L172.067 100.646C171.198 102.529 169.959 104.219 168.424 105.615L167.136 106.785C165.902 107.907 164.386 108.673 162.75 109M159.75 56L160.055 63.3251C160.185 66.4298 159.929 69.5385 159.296 72.5806C158.275 77.4779 156.29 82.123 153.456 86.2452L152.25 88M162.75 109L161.57 107.584C160.712 106.555 159.55 105.825 158.25 105.5L153.75 105L140.45 104.571C138.986 104.524 137.521 104.604 136.071 104.811L130.296 105.636C128.643 105.872 127.112 106.638 125.932 107.818C125.153 108.597 124.55 109.534 124.163 110.565L123.981 111.05C123.499 112.337 123.284 113.708 123.349 115.08L123.417 116.5M162.75 109V113.5L163.75 122.5V129.077C163.75 129.69 163.675 130.301 163.526 130.896L163.458 131.167C163.006 132.977 161.834 134.523 160.214 135.449C159.576 135.814 158.882 136.074 158.161 136.218L152.497 137.351C150.336 137.783 148.144 138.046 145.941 138.138L137.25 138.5H132.5M152.25 88L140.75 94.5M152.25 88C151.663 89.4676 152.164 91.1369 153.363 92.1672C155.651 94.1343 158.25 96.9105 158.25 99M140.75 94.5L150.75 97M89.75 73.5L81.25 68.5M81.25 68.5L73.7631 67.6361C70.1349 67.2175 66.4591 67.6268 63.0119 68.8333C59.8712 69.9326 56.9914 71.6687 54.553 73.933L51.25 77L47.9166 80.9395C46.4773 82.6404 45.2464 84.5071 44.25 86.5M81.25 68.5C77.9324 64.8506 74.1291 61.6744 69.9468 59.0605L68.25 58L66.0013 56.9881C60.892 54.6889 55.3529 53.5 49.75 53.5M68.75 107L71.4871 105.105C73.9915 103.371 76.6333 101.845 79.3862 100.541L81.5463 99.5175C83.6761 98.5087 85.9067 97.7278 88.2007 97.1881C91.5469 96.4007 94.9945 96.1342 98.4219 96.3978L99.75 96.5M123.417 116.5L123.75 123.5L124.588 131.04C124.696 132.011 124.906 132.967 125.215 133.894L126.006 136.269C126.167 136.75 126.436 137.186 126.795 137.545C127.406 138.156 128.236 138.5 129.101 138.5H132.5M123.417 116.5L122.164 115.817C120.58 114.953 118.804 114.5 117 114.5H116.831C115.784 114.5 114.744 114.669 113.75 115C112.756 115.331 111.823 115.82 110.985 116.449L110.25 117M110.25 117C109.322 116.691 108.632 115.908 108.44 114.95L108.323 114.364C108.274 114.122 108.25 113.876 108.25 113.628V112.243C108.25 110.888 107.425 109.67 106.168 109.167C105.89 109.056 105.6 108.983 105.303 108.95L103.03 108.698C101.846 108.566 100.652 108.54 99.4629 108.619L93.75 109L84.75 110L77.25 111L74.3682 111.72C73.6302 111.905 72.9365 112.235 72.3279 112.692L72.1444 112.829C71.5562 113.27 71.0788 113.842 70.75 114.5C70.4212 115.158 70.25 115.883 70.25 116.618V122.5M110.25 117C109.594 118.312 109.282 119.769 109.343 121.234L109.75 131L110.024 134.561C110.167 136.426 109.489 138.261 108.166 139.584L107.109 140.641C106.875 140.875 106.576 141.032 106.25 141.091M70.25 122.5V128.582C70.25 129.859 70.3407 131.135 70.5213 132.399L70.915 135.155C71.1363 136.704 71.6488 138.198 72.4254 139.557L72.9398 140.457C73.1457 140.817 73.3987 141.149 73.6921 141.442C74.3801 142.13 75.266 142.586 76.2258 142.746L77.75 143C82.409 143.333 87.0873 143.288 91.739 142.865L101.25 142L106.25 141.091M70.25 122.5C68.258 123.496 66.148 124.236 63.9703 124.703L60.25 125.5L51 127M51 127L50.0627 128.73C48.5574 131.509 46.2337 133.758 43.4068 135.172C40.3862 136.682 36.953 137.158 33.6354 136.526L32.065 136.227C29.5449 135.747 27.1397 134.789 24.9789 133.407L24.3438 133M24.3438 133L22.5537 137.486C22.0228 138.816 21.75 140.236 21.75 141.669C21.75 142.882 21.9456 144.087 22.3291 145.237L22.4644 145.643C22.9836 147.201 23.7894 148.647 24.8404 149.908C25.445 150.634 26.126 151.292 26.8716 151.872L28.831 153.396C29.7735 154.129 30.8016 154.745 31.8927 155.23C33.7766 156.067 35.8152 156.5 37.8767 156.5H38.75H42.5175C43.665 156.5 44.805 156.315 45.8936 155.952C46.7939 155.652 47.6501 155.233 48.4396 154.707L48.75 154.5M52.75 159.5L55.6871 164.64C57.7065 168.174 60.4461 171.244 63.7283 173.651C65.4046 174.88 67.208 175.926 69.1076 176.77L75.25 179.5C78.9078 180.83 82.6874 181.798 86.5343 182.39L87.25 182.5L97.75 183L109.75 183.5H111.706C117.356 183.5 122.96 182.484 128.25 180.5C133.237 179.17 138.076 177.337 142.693 175.029L143.75 174.5L145.639 173.241C147.377 172.082 149.021 170.788 150.556 169.371L152.462 167.612C153.979 166.211 155.29 164.601 156.352 162.829C157.28 161.283 158.012 159.626 158.531 157.898L159.25 155.5L159.985 153.295C160.823 150.781 161.25 148.149 161.25 145.5V142M92.25 163.5L94.75 161.5L97.75 159M97.75 159L98.7443 155.023C98.7481 155.008 98.75 154.992 98.75 154.977C98.75 154.743 98.409 154.717 98.3734 154.948L97.75 159ZM97.75 159L104.75 162L106.007 162.419C109.148 163.466 112.438 164 115.75 164L120.25 163.5L123.889 162.894C125.458 162.632 126.991 162.191 128.46 161.579L129.369 161.201C131.271 160.408 133 159.25 134.457 157.793C134.985 157.265 135.55 156.775 136.147 156.327L137.25 155.5M137.25 155.5L136.779 154.715C136.106 153.593 135.75 152.309 135.75 151V149M137.25 155.5L140.75 157L143.75 158M132.5 138.5L131.373 139.115C130.372 139.661 129.75 140.709 129.75 141.848C129.75 142.591 129.484 143.31 129 143.874L128.162 144.853C127.245 145.923 126.009 146.671 124.636 146.988L120.25 148L116.78 148.315C115.436 148.438 114.081 148.333 112.772 148.006L112.595 147.961C111.374 147.656 110.215 147.143 109.168 146.445L108.379 145.919C107.962 145.641 107.591 145.301 107.278 144.91L106.983 144.541C106.207 143.571 105.935 142.292 106.25 141.091" stroke="#E8450E" stroke-width="4"/>
<path d="M83.7157 134.837L98.607 133.183C99.5424 133.079 100.25 132.288 100.25 131.347C100.25 130.327 99.4231 129.5 98.4031 129.5H96.25H95.1919C93.7828 129.5 92.5802 128.481 92.3486 127.091C92.2835 126.701 92.2995 126.302 92.3954 125.918L92.4644 125.642C92.6513 124.895 93.0378 124.212 93.5826 123.667L95.25 122C95.7183 121.532 95.546 120.736 94.9258 120.503L92.5319 119.606C92.3446 119.535 92.1497 119.487 91.9513 119.463L90.5526 119.288C89.0342 119.098 87.493 119.227 86.0274 119.667L83.8348 120.325C83.4457 120.441 83.0673 120.591 82.7039 120.773C81.1253 121.562 79.8987 122.913 79.2651 124.561L78.1081 127.569C77.8714 128.184 77.75 128.838 77.75 129.498C77.75 132.7 80.5333 135.191 83.7157 134.837Z" fill="#E8450E"/>
<path d="M135.716 129.837L150.607 128.183C151.542 128.079 152.25 127.288 152.25 126.347C152.25 125.327 151.423 124.5 150.403 124.5H148.25H147.192C145.783 124.5 144.58 123.481 144.349 122.091C144.284 121.701 144.299 121.302 144.395 120.918L144.464 120.642C144.651 119.895 145.038 119.212 145.583 118.667L147.25 117C147.718 116.532 147.546 115.736 146.926 115.503L144.532 114.606C144.345 114.535 144.15 114.487 143.951 114.463L142.553 114.288C141.034 114.098 139.493 114.227 138.027 114.667L135.835 115.325C135.446 115.441 135.067 115.591 134.704 115.773C133.125 116.562 131.899 117.913 131.265 119.561L130.108 122.569C129.871 123.184 129.75 123.838 129.75 124.498C129.75 127.7 132.533 130.191 135.716 129.837Z" fill="#E8450E"/>
</svg>
