<svg width="589" height="198" viewBox="0 0 589 198" fill="none" xmlns="http://www.w3.org/2000/svg">
<path d="M91.75 79.5C86.4167 78.1667 73.85 79.1 66.25 93.5C61.5481 102.409 58.3899 109.608 56.4677 114.553C54.8255 118.778 53.1589 123.014 51 127M91.75 79.5L94.7774 78.9496C96.3955 78.6554 97.9036 77.9281 99.1413 76.8451C100.515 75.6429 102.219 74.8818 104.031 74.6608L114.983 73.3253C119.469 72.7782 124.011 72.9111 128.457 73.7195L132.75 74.5L139.58 76.1072C140.606 76.3484 141.411 77.1421 141.666 78.1639C141.722 78.3871 141.75 78.6163 141.75 78.8464V79.9857C141.75 82.2809 141.095 84.5285 139.863 86.4649L138.491 88.621C138.331 88.8722 138.134 89.0978 137.907 89.2902C135.806 91.068 137.063 94.5 139.815 94.5H140.75M91.75 79.5L89.75 73.5M10.75 98L21.75 108M10.75 98V93.6259C10.75 89.5685 11.4041 85.5376 12.6872 81.6885C13.3943 79.567 14.2886 77.5126 15.3594 75.5495L16.75 73M10.75 98C10.4212 98.3288 10.1734 98.7297 10.0264 99.1708L9.12781 101.867C8.54751 103.607 8.29087 105.44 8.37058 107.273L8.45899 109.307C8.64989 113.698 9.94828 117.969 12.2334 121.723L12.4347 122.053C14.6161 125.637 17.5869 128.676 21.1206 130.937L24.3438 133M16.75 73L13.4865 70.5953C9.40426 67.5874 6.20736 63.5356 4.23158 58.8656C2.59772 55.0037 1.8445 50.8264 2.02665 46.6371L2.04724 46.1634C2.18162 43.0726 2.78795 40.0206 3.84518 37.1132L4.14018 36.302C5.53651 32.4621 7.57724 28.8884 10.1747 25.7343L12.2405 23.2259C12.9126 22.4097 13.6427 21.643 14.4251 20.9318C17.2592 18.3552 20.7167 16.5629 24.4558 15.732L27.75 15M16.75 73C18.4116 71.6708 19.9208 70.1616 21.25 68.5L21.8039 67.8076C24.0885 64.9518 26.7862 62.4526 29.8078 60.3924L30.8014 59.7149C34.4035 57.259 38.4241 55.4823 42.6652 54.4726L43.8316 54.1949C45.7705 53.7332 47.7568 53.5 49.75 53.5M27.75 15C27.75 15 28.9548 14.3608 29.75 14M27.75 15L25.5838 17.3631C23.3818 19.7653 21.6619 22.5683 20.5177 25.6195C19.6768 27.8619 19.1568 30.2119 18.9731 32.5997L18.8753 33.8713C18.7919 34.9554 18.7954 36.0443 18.8857 37.1278C19.1258 40.0096 19.9763 42.8073 21.3807 45.3352L21.75 46L24.25 50.5M29.75 14L30.2263 13.259C32.8497 9.17825 36.6248 5.96749 41.0737 4.03316C44.1582 2.69207 47.4857 2 50.8491 2H53.25L62.5885 3.24513C66.3135 3.7418 69.8756 5.0837 73.0024 7.16824C75.8044 9.03625 78.1939 11.4587 80.0233 14.286L80.4481 14.9425C81.9743 17.3011 83.1423 19.873 83.9141 22.5743L84.75 25.5M29.75 14C31.379 13.2609 33.1487 12.9001 34.9266 12.7026L36.6912 12.5065C39.7041 12.1718 42.7529 12.4008 45.682 13.1819C47.7188 13.725 49.6767 14.5295 51.5069 15.5753L51.8457 15.769C54.4313 17.2465 56.759 19.1352 58.7375 21.3609L59.75 22.5L62.25 25.5M84.75 25.5L91.5874 24.7111C95.6896 24.2377 99.8224 24.0829 103.949 24.2479L105.732 24.3193C108.739 24.4396 111.732 24.7965 114.684 25.3867C118.386 26.1271 122.005 27.2313 125.49 28.6833L126.25 29M84.75 25.5C81.7589 26.1647 78.8493 27.1537 76.0727 28.4494L72.75 30L65.4087 33.953C61.6735 35.9643 58.3754 38.698 55.7062 41.9953L55.1414 42.693C52.5781 45.8594 50.738 49.5478 49.75 53.5M126.25 29L132.427 29.8825C135.293 30.2918 138.08 31.1302 140.696 32.3693C144.358 34.1036 147.613 36.5898 150.249 39.6658L151.487 41.1103C153.981 44.0198 156.018 47.2919 157.527 50.8141L159.75 56M126.25 29L118.75 30C114.466 30.6591 110.37 32.2217 106.736 34.5841L102.25 37.5L101.305 38.2998C97.6435 41.3978 94.6836 45.2395 92.6216 49.5696C91.379 52.1791 90.4763 54.9372 89.9355 57.7764L89.818 58.3929C89.1098 62.1108 88.9513 65.9126 89.3475 69.6766L89.75 73.5M159.75 56L162.122 58.0331C165.185 60.6588 167.783 63.7835 169.804 67.2751C171.427 70.0787 172.662 73.0897 173.475 76.2256L173.88 77.7866C175.113 82.5424 175.333 87.5043 174.525 92.3505L174.219 94.1868C173.908 96.0539 173.348 97.8709 172.555 99.5895L172.067 100.646C171.198 102.529 169.959 104.219 168.424 105.615L167.136 106.785C165.902 107.907 164.386 108.673 162.75 109M159.75 56L160.055 63.3251C160.185 66.4298 159.929 69.5385 159.296 72.5806C158.275 77.4779 156.29 82.123 153.456 86.2452L152.25 88M162.75 109L161.57 107.584C160.712 106.555 159.55 105.825 158.25 105.5L153.75 105L140.45 104.571C138.986 104.524 137.521 104.604 136.071 104.811L130.296 105.636C128.643 105.872 127.112 106.638 125.932 107.818C125.153 108.597 124.55 109.534 124.163 110.565L123.981 111.05C123.499 112.337 123.284 113.708 123.349 115.08L123.417 116.5M162.75 109V113.5L163.75 122.5V129.077C163.75 129.69 163.675 130.301 163.526 130.896L163.458 131.167C163.006 132.977 161.834 134.523 160.214 135.449C159.576 135.814 158.882 136.074 158.161 136.218L152.497 137.351C150.336 137.783 148.144 138.046 145.941 138.138L137.25 138.5H132.5M152.25 88L140.75 94.5M152.25 88C151.663 89.4676 152.164 91.1369 153.363 92.1672C155.651 94.1343 158.25 96.9105 158.25 99M140.75 94.5L150.75 97M89.75 73.5L81.25 68.5M81.25 68.5L73.7631 67.6361C70.1349 67.2175 66.4591 67.6268 63.0119 68.8333C59.8712 69.9326 56.9914 71.6687 54.553 73.933L51.25 77L47.9166 80.9395C46.4773 82.6404 45.2464 84.5071 44.25 86.5M81.25 68.5C77.9324 64.8506 74.1291 61.6744 69.9468 59.0605L68.25 58L66.0013 56.9881C60.892 54.6889 55.3529 53.5 49.75 53.5M68.75 107L71.4871 105.105C73.9915 103.371 76.6333 101.845 79.3862 100.541L81.5463 99.5175C83.6761 98.5087 85.9067 97.7278 88.2007 97.1881C91.5469 96.4007 94.9945 96.1342 98.4219 96.3978L99.75 96.5M123.417 116.5L123.75 123.5L124.588 131.04C124.696 132.011 124.906 132.967 125.215 133.894L126.006 136.269C126.167 136.75 126.436 137.186 126.795 137.545C127.406 138.156 128.236 138.5 129.101 138.5H132.5M123.417 116.5L122.164 115.817C120.58 114.953 118.804 114.5 117 114.5H116.831C115.784 114.5 114.744 114.669 113.75 115C112.756 115.331 111.823 115.82 110.985 116.449L110.25 117M110.25 117C109.322 116.691 108.632 115.908 108.44 114.95L108.323 114.364C108.274 114.122 108.25 113.876 108.25 113.628V112.243C108.25 110.888 107.425 109.67 106.168 109.167C105.89 109.056 105.6 108.983 105.303 108.95L103.03 108.698C101.846 108.566 100.652 108.54 99.4629 108.619L93.75 109L84.75 110L77.25 111L74.3682 111.72C73.6302 111.905 72.9365 112.235 72.3279 112.692L72.1444 112.829C71.5562 113.27 71.0788 113.842 70.75 114.5C70.4212 115.158 70.25 115.883 70.25 116.618V122.5M110.25 117C109.594 118.312 109.282 119.769 109.343 121.234L109.75 131L110.024 134.561C110.167 136.426 109.489 138.261 108.166 139.584L107.109 140.641C106.875 140.875 106.576 141.032 106.25 141.091M70.25 122.5V128.582C70.25 129.859 70.3407 131.135 70.5213 132.399L70.915 135.155C71.1363 136.704 71.6488 138.198 72.4254 139.557L72.9398 140.457C73.1457 140.817 73.3987 141.149 73.6921 141.442C74.3801 142.13 75.266 142.586 76.2258 142.746L77.75 143C82.409 143.333 87.0873 143.288 91.739 142.865L101.25 142L106.25 141.091M70.25 122.5C68.258 123.496 66.148 124.236 63.9703 124.703L60.25 125.5L51 127M51 127L50.0627 128.73C48.5574 131.509 46.2337 133.758 43.4068 135.172C40.3862 136.682 36.953 137.158 33.6354 136.526L32.065 136.227C29.5449 135.747 27.1397 134.789 24.9789 133.407L24.3438 133M24.3438 133L22.5537 137.486C22.0228 138.816 21.75 140.236 21.75 141.669C21.75 142.882 21.9456 144.087 22.3291 145.237L22.4644 145.643C22.9836 147.201 23.7894 148.647 24.8404 149.908C25.445 150.634 26.126 151.292 26.8716 151.872L28.831 153.396C29.7735 154.129 30.8016 154.745 31.8927 155.23C33.7766 156.067 35.8152 156.5 37.8767 156.5H38.75H42.5175C43.665 156.5 44.805 156.315 45.8936 155.952C46.7939 155.652 47.6501 155.233 48.4396 154.707L48.75 154.5M52.75 159.5L55.6871 164.64C57.7065 168.174 60.4461 171.244 63.7283 173.651C65.4046 174.88 67.208 175.926 69.1076 176.77L75.25 179.5C78.9078 180.83 82.6874 181.798 86.5343 182.39L87.25 182.5L97.75 183L109.75 183.5H111.706C117.356 183.5 122.96 182.484 128.25 180.5C133.237 179.17 138.076 177.337 142.693 175.029L143.75 174.5L145.639 173.241C147.377 172.082 149.021 170.788 150.556 169.371L152.462 167.612C153.979 166.211 155.29 164.601 156.352 162.829C157.28 161.283 158.012 159.626 158.531 157.898L159.25 155.5L159.985 153.295C160.823 150.781 161.25 148.149 161.25 145.5V142M92.25 163.5L94.75 161.5L97.75 159M97.75 159L98.7443 155.023C98.7481 155.008 98.75 154.992 98.75 154.977C98.75 154.743 98.409 154.717 98.3734 154.948L97.75 159ZM97.75 159L104.75 162L106.007 162.419C109.148 163.466 112.438 164 115.75 164L120.25 163.5L123.889 162.894C125.458 162.632 126.991 162.191 128.46 161.579L129.369 161.201C131.271 160.408 133 159.25 134.457 157.793C134.985 157.265 135.55 156.775 136.147 156.327L137.25 155.5M137.25 155.5L136.779 154.715C136.106 153.593 135.75 152.309 135.75 151V149M137.25 155.5L140.75 157L143.75 158M132.5 138.5L131.373 139.115C130.372 139.661 129.75 140.709 129.75 141.848C129.75 142.591 129.484 143.31 129 143.874L128.162 144.853C127.245 145.923 126.009 146.671 124.636 146.988L120.25 148L116.78 148.315C115.436 148.438 114.081 148.333 112.772 148.006L112.595 147.961C111.374 147.656 110.215 147.143 109.168 146.445L108.379 145.919C107.962 145.641 107.591 145.301 107.278 144.91L106.983 144.541C106.207 143.571 105.935 142.292 106.25 141.091" stroke="#E8450E" stroke-width="4"/>
<path d="M83.7157 134.837L98.607 133.183C99.5424 133.079 100.25 132.288 100.25 131.347C100.25 130.327 99.4231 129.5 98.4031 129.5H96.25H95.1919C93.7828 129.5 92.5802 128.481 92.3486 127.091C92.2835 126.701 92.2995 126.302 92.3954 125.918L92.4644 125.642C92.6513 124.895 93.0378 124.212 93.5826 123.667L95.25 122C95.7183 121.532 95.546 120.736 94.9258 120.503L92.5319 119.606C92.3446 119.535 92.1497 119.487 91.9513 119.463L90.5526 119.288C89.0342 119.098 87.493 119.227 86.0274 119.667L83.8348 120.325C83.4457 120.441 83.0673 120.591 82.7039 120.773C81.1253 121.562 79.8987 122.913 79.2651 124.561L78.1081 127.569C77.8714 128.184 77.75 128.838 77.75 129.498C77.75 132.7 80.5333 135.191 83.7157 134.837Z" fill="#E8450E"/>
<path d="M135.716 129.837L150.607 128.183C151.542 128.079 152.25 127.288 152.25 126.347C152.25 125.327 151.423 124.5 150.403 124.5H148.25H147.192C145.783 124.5 144.58 123.481 144.349 122.091C144.284 121.701 144.299 121.302 144.395 120.918L144.464 120.642C144.651 119.895 145.038 119.212 145.583 118.667L147.25 117C147.718 116.532 147.546 115.736 146.926 115.503L144.532 114.606C144.345 114.535 144.15 114.487 143.951 114.463L142.553 114.288C141.034 114.098 139.493 114.227 138.027 114.667L135.835 115.325C135.446 115.441 135.067 115.591 134.704 115.773C133.125 116.562 131.899 117.913 131.265 119.561L130.108 122.569C129.871 123.184 129.75 123.838 129.75 124.498C129.75 127.7 132.533 130.191 135.716 129.837Z" fill="#E8450E"/>
<path d="M202.946 99C202.006 99 201.536 98.6553 201.536 97.966C201.536 97.402 201.943 97.026 202.758 96.838L204.92 96.462C206.236 96.2113 207.082 95.8667 207.458 95.428C207.897 94.9893 208.116 94.112 208.116 92.796V37.524C208.116 36.208 207.897 35.3307 207.458 34.892C207.082 34.4533 206.236 34.1087 204.92 33.858L202.758 33.482C201.943 33.294 201.536 32.918 201.536 32.354C201.536 31.6647 202.006 31.32 202.946 31.32H234.53C235.971 31.32 236.755 32.0407 236.88 33.482L237.632 49.086C237.757 50.1513 237.35 50.684 236.41 50.684C235.658 50.684 235.219 50.2767 235.094 49.462L234.53 45.984C233.841 41.7227 232.431 38.6207 230.3 36.678C228.169 34.6727 225.224 33.67 221.464 33.67C218.957 33.67 217.203 34.046 216.2 34.798C215.26 35.4873 214.79 36.7407 214.79 38.558V61.212C214.79 62.0893 215.229 62.528 216.106 62.528H220.806C223.563 62.528 225.255 61.0553 225.882 58.11L226.822 53.41C227.073 52.47 227.605 52.0627 228.42 52.188C229.109 52.3133 229.454 52.846 229.454 53.786V74.936C229.454 75.876 229.109 76.4087 228.42 76.534C227.605 76.6593 227.073 76.252 226.822 75.312L225.882 70.706C225.443 68.5127 224.817 67.0713 224.002 66.382C223.25 65.6927 222.153 65.348 220.712 65.348H216.106C215.229 65.348 214.79 65.7867 214.79 66.664V90.258C214.79 92.514 215.354 94.1433 216.482 95.146C217.673 96.1487 219.803 96.65 222.874 96.65C226.007 96.65 228.671 95.8667 230.864 94.3C233.12 92.6707 234.687 89.6627 235.564 85.276L236.692 79.73C236.88 78.9153 237.35 78.508 238.102 78.508C238.979 78.508 239.355 79.0407 239.23 80.106L238.29 96.838C238.165 98.2793 237.381 99 235.94 99H202.946ZM256.162 99.846C253.968 99.846 252.151 99.094 250.71 97.59C249.331 96.0233 248.642 93.4853 248.642 89.976V54.82C248.642 54.068 248.266 53.692 247.514 53.692H244.788C243.785 53.692 243.284 53.316 243.284 52.564C243.284 52.0627 243.566 51.624 244.13 51.248C246.198 49.8067 247.858 48.2713 249.112 46.642C250.365 44.95 251.462 42.6627 252.402 39.78C252.84 38.464 253.373 37.806 254 37.806C254.689 37.806 255.034 38.3073 255.034 39.31V49.744C255.034 50.6213 255.472 51.06 256.35 51.06H262.46C263.462 51.06 263.964 51.4987 263.964 52.376C263.964 53.2533 263.462 53.692 262.46 53.692H256.35C255.472 53.692 255.034 54.1307 255.034 55.008V90.07C255.034 91.4487 255.253 92.5453 255.692 93.36C256.13 94.112 256.945 94.488 258.136 94.488C259.452 94.488 260.517 93.83 261.332 92.514C262.209 91.198 262.773 89.0673 263.024 86.122C263.149 85.2447 263.556 84.806 264.246 84.806C264.998 84.806 265.374 85.276 265.374 86.216C265.186 91.0413 264.183 94.5193 262.366 96.65C260.611 98.7807 258.543 99.846 256.162 99.846ZM294.957 99.846C293.515 99.846 291.98 99.658 290.351 99.282C288.721 98.9687 287.405 98.5613 286.403 98.06C285.839 97.7467 285.557 97.214 285.557 96.462L285.275 85.934C285.275 84.8687 285.682 84.336 286.497 84.336C287.186 84.336 287.656 84.8373 287.907 85.84C288.972 90.2893 290.257 93.3287 291.761 94.958C293.327 96.5873 295.207 97.402 297.401 97.402C299.218 97.402 300.722 96.7127 301.913 95.334C303.103 93.8927 303.699 91.9187 303.699 89.412C303.699 86.9053 303.009 84.6807 301.631 82.738C300.252 80.7953 297.933 78.6647 294.675 76.346C291.416 74.1527 289.035 71.9593 287.531 69.766C286.027 67.51 285.275 65.066 285.275 62.434C285.275 58.862 286.528 55.9793 289.035 53.786C291.541 51.5927 294.863 50.496 298.999 50.496C300.252 50.496 301.474 50.6527 302.665 50.966C303.855 51.2167 304.921 51.6553 305.861 52.282C306.425 52.658 306.707 53.1593 306.707 53.786L306.895 64.126C306.895 65.066 306.519 65.536 305.767 65.536C305.328 65.536 305.015 65.4107 304.827 65.16C304.639 64.8467 304.482 64.4707 304.357 64.032C303.103 59.9587 301.85 57.1387 300.597 55.572C299.343 53.9427 297.808 53.128 295.991 53.128C294.361 53.128 293.014 53.692 291.949 54.82C290.883 55.948 290.351 57.358 290.351 59.05C290.351 61.2433 291.009 63.1547 292.325 64.784C293.641 66.4133 296.022 68.4187 299.469 70.8C302.602 73.056 304.952 75.5 306.519 78.132C308.148 80.7013 308.963 83.5213 308.963 86.592C308.963 90.6027 307.678 93.83 305.109 96.274C302.539 98.6553 299.155 99.846 294.957 99.846ZM322.275 42.13C320.959 42.13 319.831 41.66 318.891 40.72C318.013 39.78 317.575 38.5893 317.575 37.148C317.575 35.7067 318.013 34.5473 318.891 33.67C319.831 32.73 320.959 32.26 322.275 32.26C323.591 32.26 324.687 32.73 325.565 33.67C326.442 34.5473 326.881 35.7067 326.881 37.148C326.881 38.5893 326.442 39.78 325.565 40.72C324.687 41.66 323.591 42.13 322.275 42.13ZM314.379 99C313.439 99 312.969 98.6553 312.969 97.966C312.969 97.402 313.376 97.026 314.191 96.838L315.319 96.65C316.885 96.3993 317.888 96.0233 318.327 95.522C318.765 94.958 318.985 94.018 318.985 92.702V61.118C318.985 59.99 318.797 59.238 318.421 58.862C318.107 58.4233 317.512 58.1413 316.635 58.016L314.661 57.734C313.846 57.6713 313.439 57.3267 313.439 56.7C313.439 56.1987 313.94 55.854 314.943 55.666C316.885 55.3527 318.452 54.8513 319.643 54.162C320.833 53.4727 321.993 52.6267 323.121 51.624C323.685 51.06 324.155 50.778 324.531 50.778C325.095 50.778 325.377 51.154 325.377 51.906V92.702C325.377 94.018 325.565 94.958 325.941 95.522C326.317 96.086 327.037 96.4307 328.103 96.556L330.453 96.838C331.142 96.9633 331.487 97.308 331.487 97.872C331.487 98.624 331.017 99 330.077 99H314.379ZM351.281 99C350.341 99 349.871 98.6553 349.871 97.966C349.871 97.402 350.278 97.026 351.093 96.838L352.221 96.65C353.537 96.3993 354.383 96.0233 354.759 95.522C355.198 94.958 355.417 94.018 355.417 92.702V61.118C355.417 59.99 355.229 59.238 354.853 58.862C354.54 58.4233 353.944 58.1413 353.067 58.016L351.093 57.734C350.278 57.6713 349.871 57.3267 349.871 56.7C349.871 56.1987 350.372 55.854 351.375 55.666C353.318 55.3527 354.79 54.8513 355.793 54.162C356.858 53.4727 357.955 52.6267 359.083 51.624C359.647 51.06 360.117 50.778 360.493 50.778C361.057 50.778 361.339 51.154 361.339 51.906V56.136C361.339 56.5747 361.527 56.9193 361.903 57.17C362.279 57.358 362.686 57.2327 363.125 56.794C365.694 54.35 367.919 52.6893 369.799 51.812C371.742 50.9347 373.684 50.496 375.627 50.496C377.444 50.496 379.042 50.9973 380.421 52C381.862 52.94 382.928 54.3813 383.617 56.324C383.805 56.8253 384.118 57.1387 384.557 57.264C385.058 57.3267 385.528 57.1387 385.967 56.7C388.536 54.3187 390.761 52.6893 392.641 51.812C394.521 50.9347 396.432 50.496 398.375 50.496C401.007 50.496 403.138 51.4987 404.767 53.504C406.459 55.4467 407.305 58.3293 407.305 62.152V92.702C407.305 94.018 407.493 94.958 407.869 95.522C408.308 96.0233 409.185 96.368 410.501 96.556L412.569 96.838C413.258 96.9633 413.603 97.3393 413.603 97.966C413.603 98.6553 413.227 99 412.475 99H396.401C395.524 99 395.085 98.6553 395.085 97.966C395.085 97.3393 395.43 96.9633 396.119 96.838L397.435 96.65C398.876 96.462 399.816 96.086 400.255 95.522C400.694 94.958 400.913 94.018 400.913 92.702V63.186C400.913 60.1153 400.349 57.9533 399.221 56.7C398.156 55.4467 396.683 54.82 394.803 54.82C392.923 54.82 391.2 55.4153 389.633 56.606C388.129 57.734 386.907 59.2693 385.967 61.212C385.027 63.092 384.557 65.1913 384.557 67.51V92.702C384.557 94.018 384.776 94.958 385.215 95.522C385.654 96.0233 386.562 96.368 387.941 96.556L390.009 96.838C390.698 96.9633 391.043 97.3393 391.043 97.966C391.043 98.6553 390.667 99 389.915 99H373.935C373.058 99 372.619 98.6553 372.619 97.966C372.619 97.3393 372.964 96.9633 373.653 96.838L374.969 96.65C376.285 96.462 377.131 96.086 377.507 95.522C377.946 94.958 378.165 94.018 378.165 92.702V63.186C378.165 60.1153 377.601 57.9533 376.473 56.7C375.408 55.4467 373.935 54.82 372.055 54.82C370.175 54.82 368.452 55.4153 366.885 56.606C365.381 57.734 364.159 59.2693 363.219 61.212C362.279 63.092 361.809 65.1913 361.809 67.51V92.702C361.809 94.018 361.997 94.958 362.373 95.522C362.812 96.086 363.689 96.4307 365.005 96.556L367.543 96.838C368.232 96.9633 368.577 97.308 368.577 97.872C368.577 98.624 368.107 99 367.167 99H351.281ZM425.926 99.846C423.294 99.846 421.132 99.0313 419.44 97.402C417.748 95.71 416.902 93.4853 416.902 90.728C416.902 88.0333 417.748 85.4953 419.44 83.114C421.132 80.67 423.451 78.4767 426.396 76.534C429.342 74.5913 432.694 73.0247 436.454 71.834C437.269 71.5833 437.676 71.0507 437.676 70.236V61.682C437.676 58.674 437.206 56.5433 436.266 55.29C435.326 53.974 434.042 53.316 432.412 53.316C430.846 53.316 429.404 54.0367 428.088 55.478C426.835 56.8567 425.926 59.2067 425.362 62.528C425.049 64.5333 424.36 66.006 423.294 66.946C422.292 67.8233 421.258 68.262 420.192 68.262C418.438 68.262 417.56 67.3847 417.56 65.63C417.56 63.8127 418.062 62.0267 419.064 60.272C420.13 58.4547 421.508 56.8253 423.2 55.384C424.892 53.88 426.741 52.6893 428.746 51.812C430.752 50.9347 432.757 50.496 434.762 50.496C440.966 50.496 444.068 54.0993 444.068 61.306V90.07C444.068 92.702 444.726 94.018 446.042 94.018C446.857 94.018 447.609 93.4853 448.298 92.42C448.988 91.292 449.332 89.412 449.332 86.78C449.332 85.7773 449.74 85.276 450.554 85.276C451.306 85.276 451.682 85.8087 451.682 86.874C451.682 91.4487 450.868 94.77 449.238 96.838C447.672 98.8433 445.886 99.846 443.88 99.846C442.376 99.846 441.186 99.2507 440.308 98.06C439.431 96.8067 438.836 95.334 438.522 93.642C438.46 93.0153 438.178 92.702 437.676 92.702C437.238 92.6393 436.799 92.9213 436.36 93.548C434.856 95.616 433.321 97.1827 431.754 98.248C430.188 99.3133 428.245 99.846 425.926 99.846ZM428.464 95.522C430.094 95.522 431.598 94.958 432.976 93.83C434.355 92.6393 435.483 91.0727 436.36 89.13C437.238 87.1873 437.676 84.994 437.676 82.55V75.688C437.676 74.4973 437.018 74.1527 435.702 74.654C431.88 76.0327 428.903 77.944 426.772 80.388C424.704 82.7693 423.67 85.652 423.67 89.036C423.67 93.36 425.268 95.522 428.464 95.522ZM455.011 99C454.071 99 453.601 98.6553 453.601 97.966C453.601 97.402 454.009 97.026 454.823 96.838L455.951 96.65C457.267 96.3993 458.113 96.0233 458.489 95.522C458.928 94.958 459.147 94.018 459.147 92.702V61.118C459.147 59.99 458.959 59.238 458.583 58.862C458.27 58.4233 457.675 58.1413 456.797 58.016L454.823 57.734C454.009 57.6713 453.601 57.3267 453.601 56.7C453.601 56.1987 454.103 55.854 455.105 55.666C457.048 55.3527 458.521 54.8513 459.523 54.162C460.589 53.4727 461.685 52.6267 462.813 51.624C463.377 51.06 463.847 50.778 464.223 50.778C464.787 50.778 465.069 51.154 465.069 51.906V56.136C465.069 56.5747 465.257 56.9193 465.633 57.17C466.009 57.358 466.417 57.2327 466.855 56.794C469.425 54.35 471.649 52.6893 473.529 51.812C475.472 50.9347 477.415 50.496 479.357 50.496C481.175 50.496 482.773 50.9973 484.151 52C485.593 52.94 486.658 54.3813 487.347 56.324C487.535 56.8253 487.849 57.1387 488.287 57.264C488.789 57.3267 489.259 57.1387 489.697 56.7C492.267 54.3187 494.491 52.6893 496.371 51.812C498.251 50.9347 500.163 50.496 502.105 50.496C504.737 50.496 506.868 51.4987 508.497 53.504C510.189 55.4467 511.035 58.3293 511.035 62.152V92.702C511.035 94.018 511.223 94.958 511.599 95.522C512.038 96.0233 512.915 96.368 514.231 96.556L516.299 96.838C516.989 96.9633 517.333 97.3393 517.333 97.966C517.333 98.6553 516.957 99 516.205 99H500.131C499.254 99 498.815 98.6553 498.815 97.966C498.815 97.3393 499.16 96.9633 499.849 96.838L501.165 96.65C502.607 96.462 503.547 96.086 503.985 95.522C504.424 94.958 504.643 94.018 504.643 92.702V63.186C504.643 60.1153 504.079 57.9533 502.951 56.7C501.886 55.4467 500.413 54.82 498.533 54.82C496.653 54.82 494.93 55.4153 493.363 56.606C491.859 57.734 490.637 59.2693 489.697 61.212C488.757 63.092 488.287 65.1913 488.287 67.51V92.702C488.287 94.018 488.507 94.958 488.945 95.522C489.384 96.0233 490.293 96.368 491.671 96.556L493.739 96.838C494.429 96.9633 494.773 97.3393 494.773 97.966C494.773 98.6553 494.397 99 493.645 99H477.665C476.788 99 476.349 98.6553 476.349 97.966C476.349 97.3393 476.694 96.9633 477.383 96.838L478.699 96.65C480.015 96.462 480.861 96.086 481.237 95.522C481.676 94.958 481.895 94.018 481.895 92.702V63.186C481.895 60.1153 481.331 57.9533 480.203 56.7C479.138 55.4467 477.665 54.82 475.785 54.82C473.905 54.82 472.182 55.4153 470.615 56.606C469.111 57.734 467.889 59.2693 466.949 61.212C466.009 63.092 465.539 65.1913 465.539 67.51V92.702C465.539 94.018 465.727 94.958 466.103 95.522C466.542 96.086 467.419 96.4307 468.735 96.556L471.273 96.838C471.963 96.9633 472.307 97.308 472.307 97.872C472.307 98.624 471.837 99 470.897 99H455.011ZM529.093 42.13C527.777 42.13 526.649 41.66 525.709 40.72C524.832 39.78 524.393 38.5893 524.393 37.148C524.393 35.7067 524.832 34.5473 525.709 33.67C526.649 32.73 527.777 32.26 529.093 32.26C530.409 32.26 531.506 32.73 532.383 33.67C533.26 34.5473 533.699 35.7067 533.699 37.148C533.699 38.5893 533.26 39.78 532.383 40.72C531.506 41.66 530.409 42.13 529.093 42.13ZM521.197 99C520.257 99 519.787 98.6553 519.787 97.966C519.787 97.402 520.194 97.026 521.009 96.838L522.137 96.65C523.704 96.3993 524.706 96.0233 525.145 95.522C525.584 94.958 525.803 94.018 525.803 92.702V61.118C525.803 59.99 525.615 59.238 525.239 58.862C524.926 58.4233 524.33 58.1413 523.453 58.016L521.479 57.734C520.664 57.6713 520.257 57.3267 520.257 56.7C520.257 56.1987 520.758 55.854 521.761 55.666C523.704 55.3527 525.27 54.8513 526.461 54.162C527.652 53.4727 528.811 52.6267 529.939 51.624C530.503 51.06 530.973 50.778 531.349 50.778C531.913 50.778 532.195 51.154 532.195 51.906V92.702C532.195 94.018 532.383 94.958 532.759 95.522C533.135 96.086 533.856 96.4307 534.921 96.556L537.271 96.838C537.96 96.9633 538.305 97.308 538.305 97.872C538.305 98.624 537.835 99 536.895 99H521.197ZM557.355 99.846C554.347 99.846 551.652 98.8433 549.271 96.838C546.889 94.8327 544.978 92.0127 543.537 88.378C542.158 84.6807 541.469 80.4193 541.469 75.594C541.469 70.6433 542.189 66.288 543.631 62.528C545.072 58.768 547.046 55.8227 549.553 53.692C552.059 51.5613 554.848 50.496 557.919 50.496C561.616 50.496 564.593 52.0313 566.849 55.102C569.167 58.11 570.327 63.0293 570.327 69.86C570.327 71.928 569.543 72.962 567.977 72.962H550.117C548.863 72.962 548.237 73.6827 548.237 75.124C548.237 81.7667 549.208 86.7487 551.151 90.07C553.093 93.3913 555.569 95.052 558.577 95.052C560.958 95.052 562.901 94.206 564.405 92.514C565.909 90.822 567.131 87.9707 568.071 83.96C568.259 83.2707 568.666 82.926 569.293 82.926C570.045 82.926 570.327 83.5527 570.139 84.806C569.136 90.3833 567.538 94.3 565.345 96.556C563.151 98.7493 560.488 99.846 557.355 99.846ZM549.835 70.612H559.329C562.337 70.612 563.841 69.0453 563.841 65.912C563.841 61.8387 563.339 58.6427 562.337 56.324C561.334 54.0053 559.83 52.846 557.825 52.846C555.381 52.846 553.313 54.256 551.621 57.076C549.991 59.896 548.926 63.9067 548.425 69.108C548.299 70.1107 548.769 70.612 549.835 70.612ZM217.798 177.846C214.79 177.846 212.095 176.843 209.714 174.838C207.333 172.833 205.421 170.013 203.98 166.378C202.601 162.681 201.912 158.419 201.912 153.594C201.912 148.643 202.633 144.288 204.074 140.528C205.515 136.768 207.489 133.823 209.996 131.692C212.503 129.561 215.291 128.496 218.362 128.496C222.059 128.496 225.036 130.031 227.292 133.102C229.611 136.11 230.77 141.029 230.77 147.86C230.77 149.928 229.987 150.962 228.42 150.962H210.56C209.307 150.962 208.68 151.683 208.68 153.124C208.68 159.767 209.651 164.749 211.594 168.07C213.537 171.391 216.012 173.052 219.02 173.052C221.401 173.052 223.344 172.206 224.848 170.514C226.352 168.822 227.574 165.971 228.514 161.96C228.702 161.271 229.109 160.926 229.736 160.926C230.488 160.926 230.77 161.553 230.582 162.806C229.579 168.383 227.981 172.3 225.788 174.556C223.595 176.749 220.931 177.846 217.798 177.846ZM210.278 148.612H219.772C222.78 148.612 224.284 147.045 224.284 143.912C224.284 139.839 223.783 136.643 222.78 134.324C221.777 132.005 220.273 130.846 218.268 130.846C215.824 130.846 213.756 132.256 212.064 135.076C210.435 137.896 209.369 141.907 208.868 147.108C208.743 148.111 209.213 148.612 210.278 148.612ZM209.244 121.916C208.179 122.355 207.458 122.229 207.082 121.54C206.643 120.851 206.925 120.161 207.928 119.472L221.464 108.944C222.091 108.443 222.686 108.067 223.25 107.816C223.814 107.565 224.503 107.44 225.318 107.44C226.446 107.44 227.323 107.785 227.95 108.474C228.577 109.101 228.89 109.79 228.89 110.542C228.89 111.357 228.671 112.077 228.232 112.704C227.856 113.268 227.104 113.801 225.976 114.302L209.244 121.916ZM246.982 177.846C244.789 177.846 242.971 177.094 241.53 175.59C240.151 174.023 239.462 171.485 239.462 167.976V132.82C239.462 132.068 239.086 131.692 238.334 131.692H235.608C234.605 131.692 234.104 131.316 234.104 130.564C234.104 130.063 234.386 129.624 234.95 129.248C237.018 127.807 238.679 126.271 239.932 124.642C241.185 122.95 242.282 120.663 243.222 117.78C243.661 116.464 244.193 115.806 244.82 115.806C245.509 115.806 245.854 116.307 245.854 117.31V127.744C245.854 128.621 246.293 129.06 247.17 129.06H253.28C254.283 129.06 254.784 129.499 254.784 130.376C254.784 131.253 254.283 131.692 253.28 131.692H247.17C246.293 131.692 245.854 132.131 245.854 133.008V168.07C245.854 169.449 246.073 170.545 246.512 171.36C246.951 172.112 247.765 172.488 248.956 172.488C250.272 172.488 251.337 171.83 252.152 170.514C253.029 169.198 253.593 167.067 253.844 164.122C253.969 163.245 254.377 162.806 255.066 162.806C255.818 162.806 256.194 163.276 256.194 164.216C256.006 169.041 255.003 172.519 253.186 174.65C251.431 176.781 249.363 177.846 246.982 177.846ZM268.77 177.846C266.138 177.846 263.976 177.031 262.284 175.402C260.592 173.71 259.746 171.485 259.746 168.728C259.746 166.033 260.592 163.495 262.284 161.114C263.976 158.67 266.295 156.477 269.24 154.534C272.186 152.591 275.538 151.025 279.298 149.834C280.113 149.583 280.52 149.051 280.52 148.236V139.682C280.52 136.674 280.05 134.543 279.11 133.29C278.17 131.974 276.886 131.316 275.256 131.316C273.69 131.316 272.248 132.037 270.932 133.478C269.679 134.857 268.77 137.207 268.206 140.528C267.893 142.533 267.204 144.006 266.138 144.946C265.136 145.823 264.102 146.262 263.036 146.262C261.282 146.262 260.404 145.385 260.404 143.63C260.404 141.813 260.906 140.027 261.908 138.272C262.974 136.455 264.352 134.825 266.044 133.384C267.736 131.88 269.585 130.689 271.59 129.812C273.596 128.935 275.601 128.496 277.606 128.496C283.81 128.496 286.912 132.099 286.912 139.306V168.07C286.912 170.702 287.57 172.018 288.886 172.018C289.701 172.018 290.453 171.485 291.142 170.42C291.832 169.292 292.176 167.412 292.176 164.78C292.176 163.777 292.584 163.276 293.398 163.276C294.15 163.276 294.526 163.809 294.526 164.874C294.526 169.449 293.712 172.77 292.082 174.838C290.516 176.843 288.73 177.846 286.724 177.846C285.22 177.846 284.03 177.251 283.152 176.06C282.275 174.807 281.68 173.334 281.366 171.642C281.304 171.015 281.022 170.702 280.52 170.702C280.082 170.639 279.643 170.921 279.204 171.548C277.7 173.616 276.165 175.183 274.598 176.248C273.032 177.313 271.089 177.846 268.77 177.846ZM271.308 173.522C272.938 173.522 274.442 172.958 275.82 171.83C277.199 170.639 278.327 169.073 279.204 167.13C280.082 165.187 280.52 162.994 280.52 160.55V153.688C280.52 152.497 279.862 152.153 278.546 152.654C274.724 154.033 271.747 155.944 269.616 158.388C267.548 160.769 266.514 163.652 266.514 167.036C266.514 171.36 268.112 173.522 271.308 173.522ZM305.751 120.13C304.435 120.13 303.307 119.66 302.367 118.72C301.49 117.78 301.051 116.589 301.051 115.148C301.051 113.707 301.49 112.547 302.367 111.67C303.307 110.73 304.435 110.26 305.751 110.26C307.067 110.26 308.164 110.73 309.041 111.67C309.918 112.547 310.357 113.707 310.357 115.148C310.357 116.589 309.918 117.78 309.041 118.72C308.164 119.66 307.067 120.13 305.751 120.13ZM297.855 177C296.915 177 296.445 176.655 296.445 175.966C296.445 175.402 296.852 175.026 297.667 174.838L298.795 174.65C300.362 174.399 301.364 174.023 301.803 173.522C302.242 172.958 302.461 172.018 302.461 170.702V139.118C302.461 137.99 302.273 137.238 301.897 136.862C301.584 136.423 300.988 136.141 300.111 136.016L298.137 135.734C297.322 135.671 296.915 135.327 296.915 134.7C296.915 134.199 297.416 133.854 298.419 133.666C300.362 133.353 301.928 132.851 303.119 132.162C304.31 131.473 305.469 130.627 306.597 129.624C307.161 129.06 307.631 128.778 308.007 128.778C308.571 128.778 308.853 129.154 308.853 129.906V170.702C308.853 172.018 309.041 172.958 309.417 173.522C309.793 174.086 310.514 174.431 311.579 174.556L313.929 174.838C314.618 174.963 314.963 175.308 314.963 175.872C314.963 176.624 314.493 177 313.553 177H297.855ZM329.783 177.846C327.59 177.846 325.772 177.094 324.331 175.59C322.952 174.023 322.263 171.485 322.263 167.976V132.82C322.263 132.068 321.887 131.692 321.135 131.692H318.409C317.406 131.692 316.905 131.316 316.905 130.564C316.905 130.063 317.187 129.624 317.751 129.248C319.819 127.807 321.48 126.271 322.733 124.642C323.986 122.95 325.083 120.663 326.023 117.78C326.462 116.464 326.994 115.806 327.621 115.806C328.31 115.806 328.655 116.307 328.655 117.31V127.744C328.655 128.621 329.094 129.06 329.971 129.06H336.081C337.084 129.06 337.585 129.499 337.585 130.376C337.585 131.253 337.084 131.692 336.081 131.692H329.971C329.094 131.692 328.655 132.131 328.655 133.008V168.07C328.655 169.449 328.874 170.545 329.313 171.36C329.752 172.112 330.566 172.488 331.757 172.488C333.073 172.488 334.138 171.83 334.953 170.514C335.83 169.198 336.394 167.067 336.645 164.122C336.77 163.245 337.178 162.806 337.867 162.806C338.619 162.806 338.995 163.276 338.995 164.216C338.807 169.041 337.804 172.519 335.987 174.65C334.232 176.781 332.164 177.846 329.783 177.846ZM374.5 177.846C373.936 177.846 373.528 177.501 373.278 176.812L360.776 135.358C360.337 133.854 359.898 132.883 359.46 132.444C359.084 132.005 358.457 131.692 357.58 131.504L356.17 131.222C355.355 131.034 354.948 130.627 354.948 130C354.948 129.373 355.386 129.06 356.264 129.06H371.774C372.651 129.06 373.09 129.373 373.09 130C373.09 130.689 372.682 131.097 371.868 131.222L370.364 131.41C368.86 131.598 367.92 131.974 367.544 132.538C367.168 133.039 367.168 133.979 367.544 135.358L375.346 162.524C375.534 163.213 375.847 163.558 376.286 163.558C376.724 163.558 377.038 163.213 377.226 162.524L384.84 137.05C385.341 135.358 385.466 134.105 385.216 133.29C385.028 132.413 384.15 131.849 382.584 131.598L380.61 131.222C379.795 131.034 379.388 130.627 379.388 130C379.388 129.373 379.826 129.06 380.704 129.06H392.642C393.519 129.06 393.958 129.405 393.958 130.094C393.958 130.721 393.582 131.159 392.83 131.41L391.984 131.692C391.044 132.005 390.229 132.569 389.54 133.384C388.913 134.199 388.286 135.609 387.66 137.614L375.722 176.812C375.471 177.501 375.064 177.846 374.5 177.846ZM410.112 177.846C407.104 177.846 404.41 176.843 402.028 174.838C399.647 172.833 397.736 170.013 396.294 166.378C394.916 162.681 394.226 158.419 394.226 153.594C394.226 148.643 394.947 144.288 396.388 140.528C397.83 136.768 399.804 133.823 402.31 131.692C404.817 129.561 407.606 128.496 410.676 128.496C414.374 128.496 417.35 130.031 419.606 133.102C421.925 136.11 423.084 141.029 423.084 147.86C423.084 149.928 422.301 150.962 420.734 150.962H402.874C401.621 150.962 400.994 151.683 400.994 153.124C400.994 159.767 401.966 164.749 403.908 168.07C405.851 171.391 408.326 173.052 411.334 173.052C413.716 173.052 415.658 172.206 417.162 170.514C418.666 168.822 419.888 165.971 420.828 161.96C421.016 161.271 421.424 160.926 422.05 160.926C422.802 160.926 423.084 161.553 422.896 162.806C421.894 168.383 420.296 172.3 418.102 174.556C415.909 176.749 413.246 177.846 410.112 177.846ZM402.592 148.612H412.086C415.094 148.612 416.598 147.045 416.598 143.912C416.598 139.839 416.097 136.643 415.094 134.324C414.092 132.005 412.588 130.846 410.582 130.846C408.138 130.846 406.07 132.256 404.378 135.076C402.749 137.896 401.684 141.907 401.182 147.108C401.057 148.111 401.527 148.612 402.592 148.612ZM401.558 121.916C400.493 122.355 399.772 122.229 399.396 121.54C398.958 120.851 399.24 120.161 400.242 119.472L413.778 108.944C414.405 108.443 415 108.067 415.564 107.816C416.128 107.565 416.818 107.44 417.632 107.44C418.76 107.44 419.638 107.785 420.264 108.474C420.891 109.101 421.204 109.79 421.204 110.542C421.204 111.357 420.985 112.077 420.546 112.704C420.17 113.268 419.418 113.801 418.29 114.302L401.558 121.916ZM442.211 197.21C437.448 197.21 433.688 196.239 430.931 194.296C428.173 192.416 426.795 190.129 426.795 187.434C426.795 186.306 426.951 185.272 427.265 184.332C427.578 183.455 428.236 182.421 429.239 181.23C430.304 180.039 431.902 178.504 434.033 176.624C434.785 175.935 435.161 175.308 435.161 174.744C435.161 174.117 434.785 173.647 434.033 173.334C431.777 172.394 430.429 171.203 429.991 169.762C429.552 168.258 430.085 166.879 431.589 165.626L438.357 159.798C439.109 159.171 439.077 158.639 438.263 158.2C435.693 156.947 433.657 155.004 432.153 152.372C430.649 149.74 429.897 146.92 429.897 143.912C429.897 141.029 430.523 138.429 431.777 136.11C433.03 133.791 434.722 131.943 436.853 130.564C438.983 129.185 441.365 128.496 443.997 128.496C445.501 128.496 446.942 128.747 448.321 129.248C449.198 129.561 449.731 129.279 449.919 128.402C450.483 126.021 451.517 124.172 453.021 122.856C454.587 121.477 456.123 120.788 457.627 120.788C459.068 120.788 460.227 121.227 461.105 122.104C462.045 122.919 462.515 123.953 462.515 125.206C462.515 126.271 462.201 127.117 461.575 127.744C460.948 128.371 460.165 128.684 459.225 128.684C458.41 128.684 457.815 128.527 457.439 128.214C457.063 127.901 456.718 127.587 456.405 127.274C456.091 126.961 455.59 126.804 454.901 126.804C453.397 126.804 452.457 127.619 452.081 129.248C451.893 129.875 451.893 130.407 452.081 130.846C452.331 131.285 452.676 131.723 453.115 132.162C454.619 133.603 455.778 135.358 456.593 137.426C457.47 139.494 457.909 141.781 457.909 144.288C457.909 147.296 457.282 149.991 456.029 152.372C454.838 154.753 453.177 156.633 451.047 158.012C448.979 159.391 446.629 160.08 443.997 160.08C442.869 160.08 441.897 160.331 441.083 160.832C440.268 161.271 439.453 161.929 438.639 162.806L437.041 164.592C436.226 165.595 435.975 166.566 436.289 167.506C436.665 168.383 437.542 168.822 438.921 168.822H447.005C451.517 168.822 455.089 169.95 457.721 172.206C460.353 174.399 461.669 177.439 461.669 181.324C461.669 184.395 460.791 187.121 459.037 189.502C457.282 191.883 454.932 193.763 451.987 195.142C449.104 196.521 445.845 197.21 442.211 197.21ZM443.903 157.73C446.159 157.73 447.945 156.508 449.261 154.064C450.577 151.62 451.235 148.299 451.235 144.1C451.235 140.027 450.545 136.768 449.167 134.324C447.851 131.817 446.096 130.564 443.903 130.564C441.709 130.564 439.923 131.817 438.545 134.324C437.229 136.768 436.571 140.027 436.571 144.1C436.571 148.299 437.229 151.62 438.545 154.064C439.861 156.508 441.647 157.73 443.903 157.73ZM443.339 195.142C445.595 195.142 447.663 194.641 449.543 193.638C451.423 192.635 452.895 191.225 453.961 189.408C455.089 187.653 455.653 185.648 455.653 183.392C455.653 180.572 454.807 178.41 453.115 176.906C451.485 175.339 449.167 174.556 446.159 174.556H443.997C442.054 174.556 440.581 174.744 439.579 175.12C438.639 175.496 437.73 176.154 436.853 177.094C434.91 179.162 433.688 180.823 433.187 182.076C432.685 183.329 432.435 184.614 432.435 185.93C432.435 188.687 433.375 190.912 435.255 192.604C437.197 194.296 439.892 195.142 443.339 195.142ZM481.347 177.846C478.339 177.846 475.644 176.843 473.263 174.838C470.881 172.833 468.97 170.013 467.529 166.378C466.15 162.681 465.461 158.419 465.461 153.594C465.461 148.643 466.181 144.288 467.623 140.528C469.064 136.768 471.038 133.823 473.545 131.692C476.051 129.561 478.84 128.496 481.911 128.496C485.608 128.496 488.585 130.031 490.841 133.102C493.159 136.11 494.319 141.029 494.319 147.86C494.319 149.928 493.535 150.962 491.969 150.962H474.109C472.855 150.962 472.229 151.683 472.229 153.124C472.229 159.767 473.2 164.749 475.143 168.07C477.085 171.391 479.561 173.052 482.569 173.052C484.95 173.052 486.893 172.206 488.397 170.514C489.901 168.822 491.123 165.971 492.063 161.96C492.251 161.271 492.658 160.926 493.285 160.926C494.037 160.926 494.319 161.553 494.131 162.806C493.128 168.383 491.53 172.3 489.337 174.556C487.143 176.749 484.48 177.846 481.347 177.846ZM473.827 148.612H483.321C486.329 148.612 487.833 147.045 487.833 143.912C487.833 139.839 487.331 136.643 486.329 134.324C485.326 132.005 483.822 130.846 481.817 130.846C479.373 130.846 477.305 132.256 475.613 135.076C473.983 137.896 472.918 141.907 472.417 147.108C472.291 148.111 472.761 148.612 473.827 148.612ZM472.793 121.916C471.727 122.355 471.007 122.229 470.631 121.54C470.192 120.851 470.474 120.161 471.477 119.472L485.013 108.944C485.639 108.443 486.235 108.067 486.799 107.816C487.363 107.565 488.052 107.44 488.867 107.44C489.995 107.44 490.872 107.785 491.499 108.474C492.125 109.101 492.439 109.79 492.439 110.542C492.439 111.357 492.219 112.077 491.781 112.704C491.405 113.268 490.653 113.801 489.525 114.302L472.793 121.916ZM524.342 160.174C523.59 160.174 523.214 159.673 523.214 158.67L522.838 142.032C522.775 139.839 522.932 138.084 523.308 136.768C523.746 135.452 524.53 134.23 525.658 133.102L527.914 130.846C529.919 128.841 531.454 126.961 532.52 125.206C533.585 123.389 534.118 120.913 534.118 117.78C534.118 114.647 533.554 112.453 532.426 111.2C531.298 109.947 529.95 109.32 528.384 109.32C525.689 109.32 523.558 110.417 521.992 112.61C520.488 114.741 519.015 118.125 517.574 122.762C517.323 123.639 516.916 124.078 516.352 124.078C515.662 124.078 515.318 123.545 515.318 122.48L515.6 111.106C515.6 110.605 515.694 110.197 515.882 109.884C516.07 109.571 516.32 109.289 516.634 109.038C517.636 108.223 519.046 107.597 520.864 107.158C522.681 106.719 524.279 106.5 525.658 106.5C529.982 106.5 533.366 107.659 535.81 109.978C538.254 112.234 539.476 115.43 539.476 119.566C539.476 123.138 538.786 126.146 537.408 128.59C536.092 130.971 534.086 133.447 531.392 136.016L527.726 139.4C527.099 140.027 526.66 140.716 526.41 141.468C526.159 142.157 526.002 143.317 525.94 144.946L525.564 158.67C525.564 159.673 525.156 160.174 524.342 160.174ZM524.248 177.846C522.869 177.846 521.678 177.407 520.676 176.53C519.736 175.59 519.266 174.368 519.266 172.864C519.266 171.423 519.736 170.263 520.676 169.386C521.678 168.446 522.869 167.976 524.248 167.976C525.501 167.976 526.629 168.446 527.632 169.386C528.634 170.263 529.136 171.423 529.136 172.864C529.136 174.368 528.634 175.59 527.632 176.53C526.629 177.407 525.501 177.846 524.248 177.846Z" fill="#E8450E"/>
</svg>
